<svg width="21" height="20" viewBox="0 0 21 20" fill="none" xmlns="http://www.w3.org/2000/svg">
<path d="M14.6667 18.3332C15.1269 18.3332 15.5 17.9601 15.5 17.4998C15.5 17.0396 15.1269 16.6665 14.6667 16.6665C14.2064 16.6665 13.8333 17.0396 13.8333 17.4998C13.8333 17.9601 14.2064 18.3332 14.6667 18.3332Z" stroke="#A0A4A8" stroke-width="2" stroke-linecap="round" stroke-linejoin="round"/>
<path d="M9.50002 18.3332C9.96026 18.3332 10.3333 17.9601 10.3333 17.4998C10.3333 17.0396 9.96026 16.6665 9.50002 16.6665C9.03978 16.6665 8.66669 17.0396 8.66669 17.4998C8.66669 17.9601 9.03978 18.3332 9.50002 18.3332Z" stroke="#A0A4A8" stroke-width="2" stroke-linecap="round" stroke-linejoin="round"/>
<path d="M1 1H4.33334L6.56667 12.1583C6.64287 12.542 6.85159 12.8866 7.15629 13.1319C7.46099 13.3772 7.84225 13.5075 8.23334 13.5H16.3333C16.7244 13.5075 17.1057 13.3772 17.4104 13.1319C17.7151 12.8866 17.9238 12.542 18 12.1583L19.3333 5.16666H5.16667" stroke="#A0A4A8" stroke-width="2" stroke-linecap="round" stroke-linejoin="round"/>
</svg>
